<svg width="651" height="745" viewBox="0 0 651 745" fill="none" xmlns="http://www.w3.org/2000/svg">
<rect width="651" height="745" fill="#F5F5F5"/>
<rect x="1" y="1" width="649" height="743" rx="29" fill="url(#paint0_linear_0_1)" stroke="url(#paint1_linear_0_1)" stroke-width="2"/>
<mask id="mask0_0_1" style="mask-type:alpha" maskUnits="userSpaceOnUse" x="31" y="308" width="588" height="389">
<path fill-rule="evenodd" clip-rule="evenodd" d="M89.7486 696.47H31.2057V631.983H83.6835L89.7486 638.664V696.47ZM95.9754 631.983L89.9886 638.577V696.47H148.531V631.983H95.9754ZM89.9886 625.222L95.8862 631.718H148.531V567.231H89.9886V625.222ZM83.7727 631.718L89.7486 625.136V567.231H31.2057V631.718H83.7727ZM31 696.696V631.945V631.756V567.194V567.005V502.443V502.254V437.691V437.503V372.94V372.751V308H89.7829H89.9542H148.566H148.737H207.349H207.52H266.131H266.303H324.914H325.086H383.697H383.868H442.48H442.651H501.263H501.434H560.046H560.217H619L619 372.751V437.503V437.691V502.443V567.005V631.756V631.945V696.696H560.217H560.046H501.434H501.263H442.651H442.48H383.868H383.697H325.086H324.914H266.303H266.131H207.52H207.349H148.737H148.566H89.9542H89.7829H31ZM148.771 696.47H207.314V631.983H148.771V696.47ZM266.097 696.47H207.554V631.983H266.097V696.47ZM266.337 696.47H324.88V631.983H266.337V696.47ZM383.663 696.47H325.12V631.983H383.663V696.47ZM383.903 696.47H442.446V631.983H383.903V696.47ZM501.229 696.47H442.686V631.983H501.229V696.47ZM501.468 696.47H560.011V631.983H501.468V696.47ZM618.794 696.47H560.251V631.983H618.794V696.47ZM148.771 631.718H207.314V567.231H148.771V631.718ZM266.097 631.718H207.554V567.231H260.208L266.097 573.718V631.718ZM272.131 567.231L266.337 573.614V631.718H324.88V567.231H272.131ZM266.337 560.276L272.391 566.945L272.371 566.967H324.88V502.48H266.337V560.276ZM259.969 566.967L259.949 566.945L266.097 560.172V502.48H207.554V566.967H259.969ZM383.663 631.718H325.12V567.231H383.663V631.718ZM383.903 631.718H442.446V567.231H383.903V631.718ZM501.229 631.718H442.686V567.231H501.229V631.718ZM501.468 631.718H560.011V585.122L559.912 585.013L543.77 567.231H501.468V631.718ZM543.53 566.967H501.469V508.833L501.665 509.05L507.629 502.48H560.011V548.768L559.912 548.878L543.669 566.77L543.51 566.945L543.53 566.967ZM560.011 549.118L543.827 566.945L543.847 566.967H553.87L553.849 566.945L560.011 560.158V549.118ZM560.251 548.901V502.48H618.794V566.967H576.612L576.632 566.945L576.473 566.77L560.251 548.901ZM576.294 566.967L576.314 566.945L560.251 549.251V560.291L566.292 566.945L566.272 566.967H576.294ZM576.372 567.231H618.794V631.718H560.251V584.989L576.372 567.231ZM560.251 584.639L576.054 567.231H566.032L560.251 573.599V584.639ZM560.011 584.772L544.087 567.231H554.109L560.011 573.733V584.772ZM501.468 495.561L501.665 495.344L507.886 502.197L507.869 502.216H560.011V437.729H501.468V495.561ZM495.461 502.216L495.444 502.197L501.229 495.825V437.729H442.686V502.216H495.461ZM501.229 508.569L495.701 502.48H442.686V566.967H501.229V508.569ZM31.2057 566.967H89.7486V502.48H31.2057V566.967ZM148.531 566.967H89.9886V502.48H148.531V566.967ZM148.771 566.967H207.314V502.48H148.771V566.967ZM383.663 566.967H325.12V502.48H383.663V566.967ZM383.903 566.967H442.446V502.48H383.903V566.967ZM31.2057 502.216H89.7486V437.729H31.2057V502.216ZM148.531 502.216H89.9886V437.729H132.356L132.28 437.813L132.438 437.988L148.531 455.715V502.216ZM148.531 455.365L132.597 437.813L132.673 437.729H142.696L142.619 437.813L148.531 444.325V455.365ZM148.771 444.589V455.629L148.841 455.706L165.084 437.813L165.008 437.729H154.986L155.062 437.813L148.841 444.666L148.771 444.589ZM148.771 431.036L148.841 430.96L154.746 437.465H164.768L148.841 419.92L148.771 419.997V431.036ZM142.935 437.465L148.531 431.301V420.261L132.913 437.465H142.935ZM132.596 437.465H89.9886V372.978H148.531V419.911L132.596 437.465ZM148.771 419.647V372.978H207.314V437.465H165.086L149 419.745L148.841 419.57L148.771 419.647ZM165.326 437.729H207.314V502.216H148.771V455.979L148.841 456.056L149 455.881L165.243 437.988L165.402 437.813L165.326 437.729ZM266.097 502.216H207.554V437.729H266.097V502.216ZM266.337 502.216H324.88V437.729H266.337V502.216ZM383.663 502.216H325.12V437.729H383.663V502.216ZM383.903 502.216H442.446V437.729H383.903V502.216ZM618.794 502.216H560.251V437.729H618.794V502.216ZM31.2057 437.465H89.7486V372.978H31.2057V437.465ZM266.097 437.465H207.554V372.978H266.097V437.465ZM266.337 437.465H324.88V372.978H266.337V437.465ZM383.663 437.465H325.12V372.978H383.663V437.465ZM383.903 437.465H442.446V372.978H383.903V437.465ZM501.229 437.465H442.686V372.978H501.229V437.465ZM501.468 437.465H560.011V372.978H501.468V437.465ZM618.794 437.465H560.251V372.978H618.794V437.465ZM31.2057 372.713H89.7486V308.227H31.2057V372.713ZM148.531 372.713H89.9886V308.227H148.531V372.713ZM148.771 372.713H207.314V308.227H148.771V372.713ZM266.097 372.713H207.554V308.227H266.097V372.713ZM266.337 372.713H324.88V308.227H266.337V372.713ZM383.663 372.713H325.12V308.227H383.663V372.713ZM383.903 372.713H442.446V308.227H383.903V372.713ZM501.229 372.713H442.686V308.227H501.229V372.713ZM501.468 372.713H560.011V308.227H501.468V372.713ZM618.794 372.713H560.251V308.227H618.794V372.713Z" fill="url(#paint2_radial_0_1)"/>
</mask>
<g mask="url(#mask0_0_1)">
<rect x="33" y="303.339" width="580" height="385.556" rx="37" fill="#D9D9D9"/>
</g>
<defs>
<linearGradient id="paint0_linear_0_1" x1="325.5" y1="0" x2="325.5" y2="745" gradientUnits="userSpaceOnUse">
<stop stop-color="#1B1B1B"/>
<stop offset="1"/>
</linearGradient>
<linearGradient id="paint1_linear_0_1" x1="0" y1="372.5" x2="651" y2="372.5" gradientUnits="userSpaceOnUse">
<stop stop-color="#1C1C30"/>
<stop offset="1" stop-color="#1C1C30"/>
</linearGradient>
<radialGradient id="paint2_radial_0_1" cx="0" cy="0" r="1" gradientUnits="userSpaceOnUse" gradientTransform="translate(325 914.861) rotate(-90) scale(557.887 843.943)">
<stop stop-color="white"/>
<stop offset="1" stop-color="white" stop-opacity="0"/>
</radialGradient>
</defs>
</svg>
